<svg xmlns:dc="http://purl.org/dc/elements/1.1/" xmlns:cc="http://creativecommons.org/ns#" xmlns:rdf="http://www.w3.org/1999/02/22-rdf-syntax-ns#" xmlns:svg="http://www.w3.org/2000/svg" xmlns="http://www.w3.org/2000/svg" xmlns:xlink="http://www.w3.org/1999/xlink" height="100%" width="100%" version="1.1" viewBox="0 0 442.718 571.33362" id="HyVls6EArG" xmlns:svgjs="http://svgjs.com/svgjs">
    <style type="text/css">
        @-webkit-keyframes SyHljTN0HG_Bke36EABG_Animation{0%{-webkit-transform:  translate(-22px, 570px);transform:  translate(-22px, 570px);transform-box:  fill-box;-webkit-transform-origin:  50% 50%;transform-origin:  50% 50%;}100%{-webkit-transform:  translate(-22px, 0px);transform:  translate(-22px, 0px);transform-box:  fill-box;-webkit-transform-origin:  50% 50%;transform-origin:  50% 50%;}}@keyframes SyHljTN0HG_Bke36EABG_Animation{0%{-webkit-transform:  translate(-22px, 570px);transform:  translate(-22px, 570px);transform-box:  fill-box;-webkit-transform-origin:  50% 50%;transform-origin:  50% 50%;}100%{-webkit-transform:  translate(-22px, 0px);transform:  translate(-22px, 0px);transform-box:  fill-box;-webkit-transform-origin:  50% 50%;transform-origin:  50% 50%;}}#HyVls6EArG *{-webkit-animation-duration:  1s;animation-duration:  1s;-webkit-animation-timing-function:  cubic-bezier(0, 0, 1, 1);animation-timing-function:  cubic-bezier(0, 0, 1, 1);}#SyHljTN0HG{-webkit-transform:  translate(-22.526869,-12.396383px);transform:  translate(-22.526869,-12.396383px);}#B1LgipNABf{fill: #f9bf9f;fill-opacity: 1;fill-rule: evenodd;stroke: #000000;stroke-width: 4;stroke-miterlimit: 4;stroke-dasharray: none;}#HJDxsa4RBz{fill: #f9bf9f;fill-opacity: 1;fill-rule: evenodd;stroke: #000000;stroke-width: 4;stroke-miterlimit: 4;stroke-dasharray: none;}#r1dxjaVRBf{fill: none;stroke: #000000;stroke-width: 4;stroke-linecap: round;stroke-miterlimit: 4;stroke-opacity: 0.50196078;stroke-dasharray: none;}#ryFesaVCSM{fill: none;stroke: #000000;stroke-width: 4;stroke-linecap: round;stroke-miterlimit: 4;stroke-opacity: 0.5;stroke-dasharray: none;}#Hkcxj6NRBG{fill: none;stroke: #000000;stroke-width: 4;stroke-linecap: round;stroke-miterlimit: 4;stroke-opacity: 0.50196078;stroke-dasharray: none;}#ryjlo6ERrz{fill: none;stroke: #000000;stroke-width: 4;stroke-linecap: round;stroke-miterlimit: 4;stroke-opacity: 0.50196078;stroke-dasharray: none;}#HJ2giaN0Hz{fill: none;stroke: #000000;stroke-width: 4;stroke-linecap: round;stroke-miterlimit: 4;stroke-opacity: 0.50196078;stroke-dasharray: none;}#BkpgsTVRrG{fill: none;stroke: #000000;stroke-width: 4;stroke-linecap: round;stroke-miterlimit: 4;stroke-opacity: 0.50196078;stroke-dasharray: none;}#ByRls6V0rG{fill: none;stroke: #000000;stroke-width: 4;stroke-linecap: round;stroke-miterlimit: 4;stroke-opacity: 0.50196078;stroke-dasharray: none;}#Skyxlip40HM{fill: none;stroke: #000000;stroke-width: 4;stroke-linecap: round;stroke-miterlimit: 4;stroke-opacity: 0.50196078;stroke-dasharray: none;}#BJeleo6N0Hz{fill: none;stroke: #000000;stroke-width: 4;stroke-linecap: round;stroke-miterlimit: 4;stroke-opacity: 0.50196078;stroke-dasharray: none;}#Bk-xespNASM{fill: none;stroke: #000000;stroke-width: 4;stroke-linecap: round;stroke-miterlimit: 4;stroke-opacity: 0.50196078;stroke-dasharray: none;}#BkzxgjTNABz{fill: none;stroke: #000000;stroke-width: 4;stroke-linecap: round;stroke-miterlimit: 4;stroke-opacity: 0.50196078;stroke-dasharray: none;}#rk7xeiTVRSM{-webkit-transform:  matrix(2.3270852,0,0,2.0529909,195.54774,336.95981);transform:  matrix(2.3270852,0,0,2.0529909,195.54774,336.95981);}#S1VxljaNRHG{fill: #000000;fill-opacity: 0.14018692;stroke: none;stroke-width: 1;stroke-linecap: butt;stroke-linejoin: miter;stroke-miterlimit: 4;stroke-dasharray: none;stroke-dashoffset: 0;stroke-opacity: 1;-webkit-filter: url(#filter3318);filter: url(#filter3318);-webkit-transform:  matrix(0.9919782,0,0,0.976994,-0.3031564,0.02300611);transform:  matrix(0.9919782,0,0,0.976994,-0.3031564,0.02300611);}#SJHxeoTVCSz{fill: url(#linearGradient3313);fill-opacity: 1;stroke: url(#linearGradient3315);stroke-width: 1.02175343;stroke-linecap: butt;stroke-linejoin: miter;stroke-miterlimit: 4;stroke-dasharray: none;stroke-dashoffset: 0;stroke-opacity: 1;}#SJIxls6NASM{opacity: 0.88362068;fill: url(#linearGradient3310);fill-opacity: 1;stroke: none;stroke-width: 2;stroke-linecap: butt;stroke-linejoin: miter;stroke-miterlimit: 4;stroke-dashoffset: 0;stroke-opacity: 1;}#BkDxlspN0BM{fill: url(#linearGradient3307);fill-opacity: 1;stroke: none;stroke-width: 2;stroke-linecap: butt;stroke-linejoin: miter;stroke-miterlimit: 4;stroke-dasharray: none;stroke-dashoffset: 0;stroke-opacity: 1;}#SyHljTN0HG_Bke36EABG{-webkit-animation-name:  SyHljTN0HG_Bke36EABG_Animation;animation-name:  SyHljTN0HG_Bke36EABG_Animation;}
    </style>
    <g id="SyHljTN0HG_Bke36EABG" data-animator-group="true">
        <g id="SyHljTN0HG" class="">
            <path d="M 371.29,581.73 C 370.60343,550.97956 385.00341,510.73333 385.31442,481.378 367.84129,456.73512 316.87,443.36 282,443.36 c -36.67,3.6 -103.58847,6.68542 -131.25847,25.57542 6.30266,46.39038 18.5173,60.76769 16.77118,112.49026" id="B1LgipNABf"/>
            <path d="M 265.75424,518.49136 C 233.45575,514.7984 219.31427,519.4777 194,516.36 146.25379,509.17686 118.02346,452.35812 101.55401,420.97911 72.480532,356.59083 50.261976,344.53544 47.102477,326.92092 38.049345,297.61876 14.67388,267.50996 29.137116,249.63423 c 15.892188,-19.27923 61.061137,16.90501 74.148214,42.93908 10.93626,29.99006 40.66825,58.24646 50.81161,52.01667 12.68741,-8.50027 -0.34023,-48.50561 8.61581,-95.00299 4.99602,-27.17611 -6.89203,-67.37982 -5.35762,-78.12321 4.67596,-58.52335 -4.49467,-53.65671 -2.30315,-78.20725 0.0854,-12.023175 -1.84873,-36.592539 9.44802,-49.39453 7.06056,-7.161 23.46474,-9.86877 32.10502,-1.194703 C 206.7414,57.850131 207.42582,68.57009 209,84.362 c 0.63,7.912 1.43,15.541 0,28.498 0.10627,18.68693 3.99191,39.29361 7.2659,57.7659 2.84611,20.93622 0.30735,46.79035 5.13606,65.56822 2.04634,8.04385 20.67266,8.18837 21.69748,-0.10921 4.1171,-31.19623 -1.61696,-65.14307 -1.96618,-82.24619 1.66376,-17.06538 1.37552,-59.824337 1.36674,-60.97672 3.05835,-19.79846 -0.10781,-39.640138 5.16763,-57.731214 3.45028,-10.412952 10.22088,-20.426662 25.7659,-20.734104 11.1642,-0.06077 20.29994,9.150529 21.70809,23.16474 1.61799,22.170677 3.95844,44.021297 4.95643,53.77488 -1.29906,25.824518 -0.65377,46.652478 1.10223,63.714218 1.2624,19.3939 -6.95441,59.10421 -2.72597,83.76467 1.8116,8.4948 16.67945,10.44023 17.80818,3.11088 5.73614,-29.40119 4.11281,-34.1417 8.31867,-73.30017 4.29806,-25.99357 13.43181,-40.51105 15.798,-73.975937 2.54873,-21.414934 5.94265,-41.664394 16.46789,-48.322645 8.92244,-5.273556 13.83,-3.333 18,-1.5 18.60331,10.023982 14.84002,35.007958 13.63574,55.817072 -2.68705,21.34123 -6.40416,54.79615 -6.50279,75.21561 -3.17388,25.33392 -16.15443,58.05263 -16.70446,80.90475 0.3574,6.38628 12.46303,10.7381 15.38242,6.21142 13.25369,-16.84204 17.22617,-48.60746 21.49076,-57.82564 4.453,-9.62543 12.56536,-39.4088 16.57303,-46.17669 7.59039,-12.81812 11.40026,-30.42892 22.74935,-36.0065 7.33,-2.70155 19.15724,1.76701 21.60502,12.40056 0.93229,14.41677 -2.66664,36.26264 -6.63456,46.63697 -7.09367,18.54674 -10.15083,42.32429 -14.67017,53.83969 -3.92731,10.00688 -14.17789,39.78587 -20.29139,65.51544 -17.4482,69.91903 -13.35881,179.79137 -50.87712,207.39407 -34.06401,30.04956 -82.59817,12.38318 -104.86864,9.73729 z" id="HJDxsa4RBz"/>
            <path d="m 214.27119,311.40661 c 54.93904,24.7096 116.18031,12.05613 164.10593,37.42796" id="r1dxjaVRBf"/>
            <path d="m 202.13136,332.2922 c 32.36321,28.46636 54.88337,82.86377 54.72457,125.77543" id="ryFesaVCSM"/>
            <path d="m 168.39219,177.75359 c 10.93976,-3.30833 22.7892,-4.09526 33.80948,-2.69331" id="Hkcxj6NRBG"/>
            <path d="m 165.49442,106.25219 c 11.46369,-2.77661 23.17409,-2.18984 34.5014,-0.4986" id="ryjlo6ERrz"/>
            <path d="m 252.72629,90.584095 c 10.22929,-2.663549 26.01688,-3.003996 35.40613,-0.100837" id="HJ2giaN0Hz"/>
            <path d="m 252.82712,161.85603 c 11.756,-3.8848 27.70807,-4.48019 39.01533,-0.80112" id="BkpgsTVRrG"/>
            <path d="m 349.06507,111.33594 c 9.54153,2.12943 21.30809,0.3588 28.90614,4.30251" id="ByRls6V0rG"/>
            <path d="m 334.72681,172.4298 c 7.98,1.96 26.84948,3.02279 34.80948,7.00279" id="Skyxlip40HM"/>
            <path d="m 410.56089,213.26758 c 6.36164,1.68509 17.63694,8.20564 23.00419,12.80669" id="BJeleo6N0Hz"/>
            <path d="m 426.30734,168.78367 c 7.01691,1.66331 13.35459,4.07044 19.19889,9.20167" id="Bk-xespNASM"/>
            <path d="m 67.366482,326.51364 c 10.93976,-3.30833 20.523304,-17.97388 31.260347,-21.95343" id="BkzxgjTNABz"/>
            <g id="rk7xeiTVRSM">
                <rect y="1.0000033" x="0.30560803" height="23.541595" width="52.420509" id="S1VxljaNRHG" ry="11.770797" rx="11.930446"/>
                <rect id="SJHxeoTVCSz" width="48.978245" height="20.978247" x="1.5108767" y="1.5108771" ry="10.489123" rx="10.192005"/>
                <path d="m 11.577809,2 h 28.874616 c 5.046829,0.1363381 8.046829,7 3.046829,7 H 8.4992539 c -5,0 -2,-6.8636619 3.0785551,-7 z" id="SJIxls6NASM"/>
                <rect id="BkDxlspN0BM" width="36" height="7" x="7.999999" y="14" ry="3.2941177" rx="3.5461245"/>
            </g>
        </g>
    </g>
    <metadata id="metadata19">
        <rdf:rdf>
            <cc:work>
                <dc:format>
                    image/svg+xml
                </dc:format>
                <dc:type rdf:resource="http://purl.org/dc/dcmitype/StillImage"/>
                <cc:license rdf:resource="http://creativecommons.org/licenses/publicdomain/"/>
                <dc:publisher>
                    <cc:agent rdf:about="http://openclipart.org/">
                        <dc:title>
                            Openclipart
                        </dc:title>
                    </cc:agent>
                </dc:publisher>
                <dc:title/>
                <dc:date>
                    2010-07-26T21:39:31
                </dc:date>
                <dc:description>
                    a hand
                </dc:description>
                <dc:source>
                    http://openclipart.org/detail/74737/hand-by-mireille
                </dc:source>
                <dc:creator>
                    <cc:agent>
                        <dc:title>
                            mireille
                        </dc:title>
                    </cc:agent>
                </dc:creator>
                <dc:subject>
                    <rdf:bag>
                        <rdf:li>
                            clip art
                        </rdf:li>
                        <rdf:li>
                            clipart
                        </rdf:li>
                        <rdf:li>
                            hand
                        </rdf:li>
                    </rdf:bag>
                </dc:subject>
            </cc:work>
            <cc:license rdf:about="http://creativecommons.org/licenses/publicdomain/">
                <cc:permits rdf:resource="http://creativecommons.org/ns#Reproduction"/>
                <cc:permits rdf:resource="http://creativecommons.org/ns#Distribution"/>
                <cc:permits rdf:resource="http://creativecommons.org/ns#DerivativeWorks"/>
            </cc:license>
        </rdf:rdf>
    </metadata>
    <defs id="defs23">
        <filter id="filter3318">
            <feGaussianBlur id="feGaussianBlur3320" stdDeviation="0.37981052"/>
        </filter>
        <linearGradient y2="119.36218" x2="175" y1="132.36218" x1="175" gradientTransform="matrix(0.9886777,0,0,1.0174999,-144.00829,-116.21417)" gradientUnits="userSpaceOnUse" id="linearGradient3313" xlink:href="#linearGradient3322"/>
        <linearGradient id="linearGradient3322">
            <stop style="stop-color:#bce6ff;stop-opacity:1;" offset="0" id="stop3324"/>
            <stop id="stop3326" offset="0.62307692" style="stop-color:#72a2db;stop-opacity:1;"/>
            <stop style="stop-color:#00448f;stop-opacity:1;" offset="1" id="stop3328"/>
        </linearGradient>
        <linearGradient y2="144.65048" x2="165.2981" y1="119.25659" x1="165.2981" gradientTransform="matrix(0.9886777,0,0,1.0174999,-144.00829,-116.21417)" gradientUnits="userSpaceOnUse" id="linearGradient3315" xlink:href="#linearGradient3255"/>
        <linearGradient id="linearGradient3255">
            <stop id="stop3257" offset="0" style="stop-color:#001e6e;stop-opacity:1;"/>
            <stop id="stop3259" offset="1" style="stop-color:#000000;stop-opacity:0;"/>
        </linearGradient>
        <linearGradient y2="126.29536" x2="171.81203" y1="116.55934" x1="171.81203" gradientTransform="matrix(0.8601007,0,0,0.8495721,-121.76052,-97.025581)" gradientUnits="userSpaceOnUse" id="linearGradient3310" xlink:href="#linearGradient3237"/>
        <linearGradient id="linearGradient3237">
            <stop id="stop3239" offset="0" style="stop-color:#ffffff;stop-opacity:1;"/>
            <stop id="stop3241" offset="1" style="stop-color:#d1f3ff;stop-opacity:0.25619835;"/>
        </linearGradient>
        <linearGradient y2="125.4363" x2="174.10286" y1="135.45866" x1="174.10286" gradientTransform="matrix(0.9312504,0,0,0.7189801,-134.13335,-76.186206)" gradientUnits="userSpaceOnUse" id="linearGradient3307" xlink:href="#linearGradient3247"/>
        <linearGradient id="linearGradient3247">
            <stop id="stop3249" offset="0" style="stop-color:#d1fdff;stop-opacity:1;"/>
            <stop id="stop3251" offset="1" style="stop-color:#c4e6ff;stop-opacity:0;"/>
        </linearGradient>
    </defs>
</svg>