<svg xmlns:dc="http://purl.org/dc/elements/1.1/" xmlns:cc="http://creativecommons.org/ns#" xmlns:rdf="http://www.w3.org/1999/02/22-rdf-syntax-ns#" xmlns:svg="http://www.w3.org/2000/svg" xmlns="http://www.w3.org/2000/svg" xmlns:xlink="http://www.w3.org/1999/xlink" height="100%" width="100%" version="1.1" viewBox="0 0 442.718 571.33362" id="rkV97oVRSz" xmlns:svgjs="http://svgjs.com/svgjs">
    <style type="text/css">
        @-webkit-keyframes B1ScXiECHM_BkD0j4Arf_Animation{0%{-webkit-transform:  translate(-22px, 570px);transform:  translate(-22px, 570px);transform-box:  fill-box;-webkit-transform-origin:  50% 50%;transform-origin:  50% 50%;}100%{-webkit-transform:  translate(-22px, 0px);transform:  translate(-22px, 0px);transform-box:  fill-box;-webkit-transform-origin:  50% 50%;transform-origin:  50% 50%;}}@keyframes B1ScXiECHM_BkD0j4Arf_Animation{0%{-webkit-transform:  translate(-22px, 570px);transform:  translate(-22px, 570px);transform-box:  fill-box;-webkit-transform-origin:  50% 50%;transform-origin:  50% 50%;}100%{-webkit-transform:  translate(-22px, 0px);transform:  translate(-22px, 0px);transform-box:  fill-box;-webkit-transform-origin:  50% 50%;transform-origin:  50% 50%;}}#rkV97oVRSz *{-webkit-animation-duration:  1s;animation-duration:  1s;-webkit-animation-timing-function:  cubic-bezier(0, 0, 1, 1);animation-timing-function:  cubic-bezier(0, 0, 1, 1);}#B1ScXiECHM{-webkit-transform:  translate(-22.526869,-12.396383px);transform:  translate(-22.526869,-12.396383px);}#HyU9QiVABM{fill: #f9bf9f;fill-opacity: 1;fill-rule: evenodd;stroke: #000000;stroke-width: 4;stroke-miterlimit: 4;stroke-dasharray: none;}#BJPqmsEArG{fill: #f9bf9f;fill-opacity: 1;fill-rule: evenodd;stroke: #000000;stroke-width: 4;stroke-miterlimit: 4;stroke-dasharray: none;}#S1dcmi4RrG{fill: none;stroke: #000000;stroke-width: 4;stroke-linecap: round;stroke-miterlimit: 4;stroke-opacity: 0.50196078;stroke-dasharray: none;}#HkK9XoN0rG{fill: none;stroke: #000000;stroke-width: 4;stroke-linecap: round;stroke-miterlimit: 4;stroke-opacity: 0.5;stroke-dasharray: none;}#Sy997i4CSM{fill: none;stroke: #000000;stroke-width: 4;stroke-linecap: round;stroke-miterlimit: 4;stroke-opacity: 0.50196078;stroke-dasharray: none;}#HksqXi4CBM{fill: none;stroke: #000000;stroke-width: 4;stroke-linecap: round;stroke-miterlimit: 4;stroke-opacity: 0.50196078;stroke-dasharray: none;}#Sy297o40HM{fill: none;stroke: #000000;stroke-width: 4;stroke-linecap: round;stroke-miterlimit: 4;stroke-opacity: 0.50196078;stroke-dasharray: none;}#HJaq7j40rM{fill: none;stroke: #000000;stroke-width: 4;stroke-linecap: round;stroke-miterlimit: 4;stroke-opacity: 0.50196078;stroke-dasharray: none;}#BkRqXjNASf{fill: none;stroke: #000000;stroke-width: 4;stroke-linecap: round;stroke-miterlimit: 4;stroke-opacity: 0.50196078;stroke-dasharray: none;}#H1kg5Xs4ABM{fill: none;stroke: #000000;stroke-width: 4;stroke-linecap: round;stroke-miterlimit: 4;stroke-opacity: 0.50196078;stroke-dasharray: none;}#SJeecQoV0rG{fill: none;stroke: #000000;stroke-width: 4;stroke-linecap: round;stroke-miterlimit: 4;stroke-opacity: 0.50196078;stroke-dasharray: none;}#rJWx5XoNRHM{fill: none;stroke: #000000;stroke-width: 4;stroke-linecap: round;stroke-miterlimit: 4;stroke-opacity: 0.50196078;stroke-dasharray: none;}#SJzxcQoERBf{fill: none;stroke: #000000;stroke-width: 4;stroke-linecap: round;stroke-miterlimit: 4;stroke-opacity: 0.50196078;stroke-dasharray: none;}#H1Qe5Qi4RSf{-webkit-transform:  matrix(0.30461981,0,0,0.30461981,178.0469,161.7153);transform:  matrix(0.30461981,0,0,0.30461981,178.0469,161.7153);}#SJEg9Xj4RBM{fill: #ffffff;fill-opacity: 1;stroke: none;}#H1Sl9XjERSf{fill: #bc1f2a;fill-opacity: 1;stroke: none;}#ByLe9QsNArM{opacity: 0.14136101;fill: url(#linearGradient2446);fill-opacity: 1;stroke: none;-webkit-filter: url(#filter3785);filter: url(#filter3785);}#Syvx5QoNArf{opacity: 0.9;fill: #ffffff;fill-opacity: 1;stroke: none;-webkit-filter: url(#filter3665);filter: url(#filter3665);}#rydgqXi4RHG{opacity: 0.25;fill: #4d4d4d;fill-opacity: 1;stroke: none;-webkit-filter: url(#filter3701);filter: url(#filter3701);}#ryYgqQsV0rz{opacity: 0.53926703;fill: #ffffff;stroke-width: 1px;-webkit-filter: url(#filter3769);filter: url(#filter3769);-webkit-transform:  matrix(0.956028,0,0,0.956028,22.8664,-119.375);transform:  matrix(0.956028,0,0,0.956028,22.8664,-119.375);}#HkqgcXjNAHf{opacity: 0.267016;fill: none;stroke: #000000;stroke-width: 6;stroke-opacity: 1;-webkit-filter: url(#filter4025);filter: url(#filter4025);-webkit-transform:  matrix(0.956028,0,0,0.956028,-555.452,-117.445);transform:  matrix(0.956028,0,0,0.956028,-555.452,-117.445);}#B1ScXiECHM_BkD0j4Arf{-webkit-animation-name:  B1ScXiECHM_BkD0j4Arf_Animation;animation-name:  B1ScXiECHM_BkD0j4Arf_Animation;}
    </style>
    <g id="B1ScXiECHM_BkD0j4Arf" data-animator-group="true">
        <g id="B1ScXiECHM" class="">
            <path d="M 371.29,581.73 C 370.60343,550.97956 385.00341,510.73333 385.31442,481.378 367.84129,456.73512 316.87,443.36 282,443.36 c -36.67,3.6 -103.58847,6.68542 -131.25847,25.57542 6.30266,46.39038 18.5173,60.76769 16.77118,112.49026" id="HyU9QiVABM"/>
            <path d="M 261.74866,518.49136 C 229.45017,514.7984 215.30869,519.4777 189.99442,516.36 142.24821,509.17686 114.01788,452.35812 97.548434,420.97911 68.474956,356.59083 46.2564,344.53544 43.096901,326.92092 34.043769,297.61876 10.668304,267.50996 25.13154,249.63423 c 15.892188,-19.27923 61.061137,16.90501 74.148214,42.93908 10.936256,29.99006 40.668246,58.24646 50.811606,52.01667 12.68741,-8.50027 -0.34023,-48.50561 8.61581,-95.00299 4.99602,-27.17611 -6.89203,-67.37982 -5.35762,-78.12321 4.67596,-58.52335 -4.49467,-53.65671 -2.30315,-78.20725 0.0854,-12.023175 -1.84873,-36.592539 9.44802,-49.39453 7.06056,-7.161 23.46474,-9.86877 32.10502,-1.194703 10.13638,15.182834 10.8208,25.902793 12.39498,41.694703 0.63,7.912 1.43,15.541 0,28.498 0.10627,18.68693 3.99191,39.29361 7.2659,57.7659 2.84611,20.93622 0.30735,46.79035 5.13606,65.56822 2.04634,8.04385 20.67266,8.18837 21.69748,-0.10921 4.1171,-31.19623 -1.61696,-65.14307 -1.96618,-82.24619 1.66376,-17.06538 1.37552,-59.824337 1.36674,-60.97672 3.05835,-19.79846 -0.10781,-39.640138 5.16763,-57.731214 3.45028,-10.412952 10.22088,-20.426662 25.7659,-20.734104 11.1642,-0.06077 20.29994,9.150529 21.70809,23.16474 1.61799,22.170677 3.95844,44.021297 4.95643,53.77488 -1.29906,25.824518 -0.65377,46.652478 1.10223,63.714218 1.2624,19.3939 -6.95441,59.10421 -2.72597,83.76467 1.8116,8.4948 16.67945,10.44023 17.80818,3.11088 5.73614,-29.40119 4.11281,-34.1417 8.31867,-73.30017 4.29806,-25.99357 13.43181,-40.51105 15.798,-73.975937 2.54873,-21.414934 5.94265,-41.664394 16.46789,-48.322645 8.92244,-5.273556 13.83,-3.333 18,-1.5 18.60331,10.023982 14.84002,35.007958 13.63574,55.817072 -2.68705,21.34123 -6.40416,54.79615 -6.50279,75.21561 -3.17388,25.33392 -16.15443,58.05263 -16.70446,80.90475 0.3574,6.38628 12.46303,10.7381 15.38242,6.21142 13.25369,-16.84204 17.22617,-48.60746 21.49076,-57.82564 4.453,-9.62543 12.56536,-39.4088 16.57303,-46.17669 7.59039,-12.81812 11.40026,-30.42892 22.74935,-36.0065 7.33,-2.70155 19.15724,1.76701 21.60502,12.40056 0.93229,14.41677 -2.66664,36.26264 -6.63456,46.63697 -7.09367,18.54674 -10.15083,42.32429 -14.67017,53.83969 -3.92731,10.00688 -14.17789,39.78587 -20.29139,65.51544 -17.4482,69.91903 -13.35881,179.79137 -50.87712,207.39407 -34.06401,30.04956 -82.59817,12.38318 -104.86864,9.73729 z" id="BJPqmsEArG"/>
            <path d="m 214.27119,311.40661 c 54.93904,24.7096 116.18031,12.05613 164.10593,37.42796" id="S1dcmi4RrG"/>
            <path d="m 202.13136,332.2922 c 32.36321,28.46636 54.88337,82.86377 54.72457,125.77543" id="HkK9XoN0rG"/>
            <path d="m 168.39219,177.75359 c 10.93976,-3.30833 22.7892,-4.09526 33.80948,-2.69331" id="Sy997i4CSM"/>
            <path d="m 165.49442,106.25219 c 11.46369,-2.77661 23.17409,-2.18984 34.5014,-0.4986" id="HksqXi4CBM"/>
            <path d="m 252.72629,90.584095 c 10.22929,-2.663549 26.01688,-3.003996 35.40613,-0.100837" id="Sy297o40HM"/>
            <path d="m 252.82712,161.85603 c 11.756,-3.8848 27.70807,-4.48019 39.01533,-0.80112" id="HJaq7j40rM"/>
            <path d="m 349.06507,111.33594 c 9.54153,2.12943 21.30809,0.3588 28.90614,4.30251" id="BkRqXjNASf"/>
            <path d="m 334.72681,172.4298 c 7.98,1.96 26.84948,3.02279 34.80948,7.00279" id="H1kg5Xs4ABM"/>
            <path d="m 410.56089,213.26758 c 6.36164,1.68509 17.63694,8.20564 23.00419,12.80669" id="SJeecQoV0rG"/>
            <path d="m 426.30734,168.78367 c 7.01691,1.66331 13.35459,4.07044 19.19889,9.20167" id="rJWx5XoNRHM"/>
            <path d="m 67.366482,326.51364 c 10.93976,-3.30833 20.523304,-17.97388 31.260347,-21.95343" id="SJzxcQoERBf"/>
            <g id="H1Qe5Qi4RSf">
                <path d="m 417.36877,576.74788 h 97.3381 c 39.7847,0 71.8135,30.19438 71.8135,67.7004 0,37.50602 -32.0288,67.7004 -71.8135,67.7004 h -97.3381" id="SJEg9Xj4RBM"/>
                <path d="m 417.36877,576.74788 v 135.4008 H 227.45306 c -39.78466,0 -71.81348,-30.19438 -71.81348,-67.7004 0,-37.50602 32.02882,-67.7004 71.81348,-67.7004 z" id="H1Sl9XjERSf"/>
                <path d="m 232.09994,582.84697 c -14.68282,-0.0362 -29.22748,6.95909 -38.3654,18.45191 -6.23816,7.84577 -9.929,17.46065 -12.0917,27.24807 -2.62264,11.86889 -3.1133,24.20558 -1.44156,36.24526 3.71576,-9.32882 7.76023,-18.5267 12.12339,-27.57084 3.65207,-7.57017 7.67803,-15.22843 14.03371,-20.72847 7.33356,-6.34626 17.53301,-9.2422 27.10731,-7.69659 l 36.04448,0.47564 -1.17249,-24.35433 z" id="ByLe9QsNArM"/>
                <rect id="Syvx5QoNArf" width="183.02081" height="32.690536" x="243.90814" y="583.00562" rx="5" ry="5"/>
                <path d="m 228.39102,580.6108 c -3.40066,0 -6.73613,0.23036 -10.00841,0.65728 0.79963,-0.0885 1.61543,-0.15229 2.41994,-0.20913 94.46112,-0.86776 188.95772,0.0637 283.43242,-0.44814 h -85.923 -189.92095 z m 284.00005,0 c 1.6239,0.031 3.2473,0.0934 4.8697,0.17925 1.7846,-0.0209 3.5488,0.0211 5.318,0.14938 -2.2852,-0.20491 -4.5874,-0.32863 -6.9312,-0.32863 z m 25.992,3.4656 c 19.9802,6.5475 36.2957,22.2241 40.3025,41.34821 7.0334,29.30101 -19.8164,58.69705 -51.4761,62.67957 -72.7466,1.58766 -145.5563,0.54678 -218.3329,0.71703 -27.6354,-0.48797 -55.28294,0.70594 -82.90549,-0.17926 -29.9457,0.51144 -58.26986,-21.5392 -61.27541,-48.60803 -3.34393,-24.48705 15.64337,-47.42126 40.39217,-55.77827 -28.272,9.08732 -48.51841,34.24999 -48.51841,64.05387 0,37.50602 32.03693,67.69873 71.82159,67.69873 h 189.92095 97.3356 c 39.7846,0 71.8215,-30.19271 71.8215,-67.69873 0,-30.00291 -20.5177,-55.30208 -49.086,-64.23312 z" id="rydgqXi4RHG"/>
                <path d="m 179.48941,836.93575 c -0.31205,2.29927 0.41146,4.69863 1.86632,6.50623 1.45485,1.8076 3.562,2.94591 5.65388,3.94993 l 25.44983,12.21497 29.84621,-9.52149 c -15.85944,5.04786 -33.6521,3.71616 -48.58343,-3.63625 -5.13431,-2.52821 -9.93346,-5.73602 -14.23281,-9.51339 z" id="ryYgqQsV0rz"/>
                <path d="m 818.0625,726.125 c -41.61454,0 -75.125,31.58141 -75.125,70.8125 0,39.23109 33.51046,70.8125 75.125,70.8125 h 198.6563 101.8124 c 41.6146,0 75.125,-31.58141 75.125,-70.8125 0,-39.23109 -33.5104,-70.8125 -75.125,-70.8125 h -101.8124 z" id="HkqgcXjNAHf" mask="url(#mask4013)"/>
            </g>
        </g>
    </g>
    <metadata id="metadata19">
        <rdf:rdf>
            <cc:work>
                <dc:format>
                    image/svg+xml
                </dc:format>
                <dc:type rdf:resource="http://purl.org/dc/dcmitype/StillImage"/>
                <cc:license rdf:resource="http://creativecommons.org/licenses/publicdomain/"/>
                <dc:publisher>
                    <cc:agent rdf:about="http://openclipart.org/">
                        <dc:title>
                            Openclipart
                        </dc:title>
                    </cc:agent>
                </dc:publisher>
                <dc:title/>
                <dc:date>
                    2010-07-26T21:39:31
                </dc:date>
                <dc:description>
                    a hand
                </dc:description>
                <dc:source>
                    http://openclipart.org/detail/74737/hand-by-mireille
                </dc:source>
                <dc:creator>
                    <cc:agent>
                        <dc:title>
                            mireille
                        </dc:title>
                    </cc:agent>
                </dc:creator>
                <dc:subject>
                    <rdf:bag>
                        <rdf:li>
                            clip art
                        </rdf:li>
                        <rdf:li>
                            clipart
                        </rdf:li>
                        <rdf:li>
                            hand
                        </rdf:li>
                    </rdf:bag>
                </dc:subject>
            </cc:work>
            <cc:license rdf:about="http://creativecommons.org/licenses/publicdomain/">
                <cc:permits rdf:resource="http://creativecommons.org/ns#Reproduction"/>
                <cc:permits rdf:resource="http://creativecommons.org/ns#Distribution"/>
                <cc:permits rdf:resource="http://creativecommons.org/ns#DerivativeWorks"/>
            </cc:license>
        </rdf:rdf>
    </metadata>
    <defs id="defs23">
        <linearGradient y2="757.49847" x2="273.45148" y1="757.49847" x1="183.17151" gradientTransform="translate(-3.94129,-133.679)" gradientUnits="userSpaceOnUse" id="linearGradient2446" xlink:href="#linearGradient3709"/>
        <linearGradient id="linearGradient3709">
            <stop id="stop3711" offset="0" style="stop-color: rgb(255, 255, 255); stop-opacity: 1;"/>
            <stop id="stop3713" offset="1" style="stop-color: rgb(255, 255, 255); stop-opacity: 0;"/>
        </linearGradient>
        <filter id="filter3785">
            <feGaussianBlur id="feGaussianBlur3787" stdDeviation="2.1528168"/>
        </filter>
        <filter height="1.5542814" y="-0.27714065" width="1.0990038" x="-0.049501892" id="filter3665">
            <feGaussianBlur id="feGaussianBlur3667" stdDeviation="3.7749486"/>
        </filter>
        <filter id="filter3701">
            <feGaussianBlur id="feGaussianBlur3703" stdDeviation="4.2472285"/>
        </filter>
        <filter height="2.4789584" y="-0.73947918" width="2.1868873" x="-0.59344363" id="filter3769">
            <feGaussianBlur id="feGaussianBlur3771" stdDeviation="5.9949699"/>
        </filter>
        <mask id="mask4013" maskUnits="userSpaceOnUse">
            <g transform="matrix(1.04599,0,0,1.04599,-148.33,58.1966)" id="g4015">
                <path id="path4017" d="m 1114.7459,638.55486 h 97.3381 c 39.7847,0 71.8135,30.19438 71.8135,67.7004 0,37.50602 -32.0288,67.7004 -71.8135,67.7004 h -97.3381" style="fill:#ffffff;fill-opacity:1;stroke:none"/>
                <path id="path4019" d="m 1114.7459,638.55486 v 135.4008 H 924.83019 c -39.78466,0 -71.81348,-30.19438 -71.81348,-67.7004 0,-37.50602 32.02882,-67.7004 71.81348,-67.7004 z" style="fill:#bc1f2a;fill-opacity:1;stroke:none"/>
            </g>
        </mask>
        <filter height="1.3088599" y="-0.15443002" width="1.0970501" x="-0.048525061" id="filter4025">
            <feGaussianBlur id="feGaussianBlur4027" stdDeviation="9.11298"/>
        </filter>
    </defs>
</svg>